<?xml version="1.0" encoding="UTF-8"?>
<svg width="24px" height="24px" viewBox="0 0 24 24" version="1.1" xmlns="http://www.w3.org/2000/svg" xmlns:xlink="http://www.w3.org/1999/xlink">
    <!-- Generator: Sketch 43.2 (39069) - http://www.bohemiancoding.com/sketch -->
    <title>ic_linkedin</title>
    <desc>Created with Sketch.</desc>
    <defs></defs>
    <g id="Page-1" stroke="none" stroke-width="1" fill="none" fill-rule="evenodd">
        <g id="ic_linkedin" fill-rule="nonzero" fill="#FFFFFF">
            <g id="if_linkedin_1220358">
                <path d="M12.9590551,10.0677165 C13.280315,9.67086614 13.5165354,9.2976378 13.8283465,8.98110236 C14.4141732,8.38110236 15.0944882,7.95590551 15.888189,7.68661417 C16.7669291,7.38897638 17.6740157,7.34645669 18.5716535,7.43622047 C20.0267717,7.57322835 21.2976378,8.14015748 22.2850394,9.2503937 C22.7480315,9.77007874 23.0929134,10.3653543 23.3433071,11.0125984 C23.5370079,11.5181102 23.688189,12.0283465 23.7779528,12.5622047 C23.8535433,13.0204724 23.9480315,13.4787402 23.9480315,13.9464567 C23.9527559,17.1826772 23.9527559,20.4188976 23.9574803,23.6551181 C23.9574803,23.815748 23.919685,23.8677165 23.7543307,23.8677165 C22.2755906,23.8629921 20.792126,23.8582677 19.3133858,23.8677165 C19.1007874,23.8677165 19.0724409,23.792126 19.0724409,23.607874 C19.0771654,20.7826772 19.0771654,17.9527559 19.0771654,15.1275591 C19.0771654,14.607874 19.0440945,14.0834646 18.8929134,13.592126 C18.6377953,12.7606299 18.1228346,12.1559055 17.2771654,11.8488189 C16.5685039,11.5937008 15.8503937,11.5464567 15.1275591,11.7307087 C14.3291339,11.9338583 13.7669291,12.4582677 13.3700787,13.1669291 C13.1480315,13.5637795 13.0582677,13.9795276 13.0110236,14.4330709 C12.9779528,14.7779528 12.9685039,15.1181102 12.9685039,15.4629921 C12.9637795,18.1700787 12.9637795,20.8818898 12.9732283,23.5889764 C12.9732283,23.8204724 12.911811,23.8724409 12.6897638,23.8677165 C11.2582677,23.8582677 9.82204724,23.8535433 8.39055118,23.8677165 C8.13543307,23.8724409 8.1023622,23.7874016 8.1023622,23.5653543 C8.11181102,18.5716535 8.11181102,13.5826772 8.11181102,8.58897638 C8.11181102,7.9984252 8.10708661,7.9984252 8.6976378,7.9984252 C10.0440945,7.9984252 11.3905512,8.00314961 12.7370079,7.99370079 C12.9259843,7.99370079 12.9732283,8.0503937 12.9685039,8.23464567 C12.9543307,8.82047244 12.9590551,9.40629921 12.9590551,10.0677165 Z" id="Shape"></path>
                <path d="M0.155905512,15.992126 C0.155905512,13.4551181 0.160629921,10.9228346 0.151181102,8.38582677 C0.151181102,8.17322835 0.203149606,8.1023622 0.42519685,8.1023622 C1.88031496,8.11181102 3.34015748,8.11181102 4.79527559,8.1023622 C5.01259843,8.1023622 5.06456693,8.17322835 5.06456693,8.38582677 C5.05984252,13.4456693 5.05984252,18.5102362 5.06456693,23.5700787 C5.06456693,23.792126 5.01732283,23.8629921 4.78110236,23.8582677 C3.32598425,23.8488189 1.86614173,23.8488189 0.411023622,23.8582677 C0.203149606,23.8582677 0.151181102,23.8015748 0.151181102,23.5937008 C0.160629921,21.0614173 0.155905512,18.5291339 0.155905512,15.992126 Z" id="Shape"></path>
                <path d="M2.54645669,0.0330708661 C4.11968504,-0.0188976378 5.04566929,1.14330709 5.0503937,2.51811024 C5.0503937,3.93070866 4.05354331,4.97952756 2.51811024,4.98425197 C1.02992126,4.98897638 0.0330708661,3.95905512 0.0236220472,2.4992126 C0.0141732283,1.11496063 1.02519685,-0.0141732283 2.54645669,0.0330708661 Z" id="Shape"></path>
            </g>
        </g>
    </g>
</svg>