<?xml version="1.0" encoding="UTF-8" standalone="no"?>
<!-- Generator: Adobe Illustrator 13.0.0, SVG Export Plug-In . SVG Version: 6.00 Build 14948)  -->
<svg xmlns:dc="http://purl.org/dc/elements/1.1/" xmlns:cc="http://creativecommons.org/ns#" xmlns:rdf="http://www.w3.org/1999/02/22-rdf-syntax-ns#" xmlns:svg="http://www.w3.org/2000/svg" xmlns="http://www.w3.org/2000/svg" xmlns:sodipodi="http://sodipodi.sourceforge.net/DTD/sodipodi-0.dtd" xmlns:inkscape="http://www.inkscape.org/namespaces/inkscape" version="1.0" id="svg2" inkscape:version="0.48.2 r9819" sodipodi:docname="Wikipedia-W-bold-in-square-Clean.svg" sodipodi:version="0.32" x="0px" y="0px" width="1700px" height="1700px" viewBox="0 0 1700 1700" enable-background="new 0 0 1700 1700" xml:space="preserve"><metadata id="metadata2997"><rdf:RDF><cc:Work rdf:about=""><dc:format>image/svg+xml</dc:format><dc:type rdf:resource="http://purl.org/dc/dcmitype/StillImage"/><dc:title/></cc:Work></rdf:RDF></metadata><defs id="defs2995"/>
<sodipodi:namedview id="base" inkscape:window-y="-4" inkscape:current-layer="svg2" inkscape:window-x="-4" inkscape:guide-bbox="true" inkscape:pageopacity="0.0" inkscape:pageshadow="2" inkscape:window-height="712" inkscape:window-width="1024" gridtolerance="10.0" objecttolerance="10.0" borderopacity="1.0" inkscape:cx="825.12006" inkscape:cy="1466.0538" guidetolerance="10.0" inkscape:zoom="0.48691411" bordercolor="#666666" pagecolor="#ffffff" showguides="true" showgrid="false" inkscape:window-maximized="1">
	</sodipodi:namedview>
<path id="path1873" sodipodi:nodetypes="ccccccccccccccccccccccccccccccccccccccc" d="M153.347,494.923  C114.96,430.363,48.58,366.544,0.669,348.136l-7.724-2.968v-31.085v-32.44h440.161v59.661  c-57.534,7.152-126.887,35.272-107.668,99.767c109.686,242.343,209.493,489.043,317.782,731.999l185.867-347.553  C757.165,678.195,704.77,529.164,626.037,384.632c-25.67-41.62-95.088-42.781-144.252-44.39v-58.599h412.58v58.04  c-37.071,5.124-80.771,13.933-75.815,58.861l116.717,258.137c38.411-81.941,81.104-162.145,114.979-246.128  c15.378-66.494-59.431-69.801-107.14-71.653v-57.257h366.638v57.103c-53.716,3.797-104.53,19.29-134.155,59.003  c-72.015,111.328-125.434,237.653-181.525,358.574c55.421,131.057,113.183,261.932,169.828,382.098l313.198-722.429  c-21.128-47.621-68.976-64.441-115.941-75.336v-59.012h344.906v60.194c-15.475,2.407-30.291,7.179-44.619,13.431  c-27.157,12.604-52.811,37.62-70.017,68.277l-431.946,993.811h-72.102L881.998,933.661l-249.297,483.66l-74.847,0.008  C412.202,1113.935,306.824,794.665,153.347,494.923z" style="fill:#ffffff"/>
</svg>