<?xml version="1.0" encoding="utf-8"?>
<!-- Generator: Adobe Illustrator 16.0.0, SVG Export Plug-In . SVG Version: 6.00 Build 0)  -->
<!DOCTYPE svg PUBLIC "-//W3C//DTD SVG 1.1//EN" "http://www.w3.org/Graphics/SVG/1.1/DTD/svg11.dtd">
<svg version="1.1" id="Layer_1" xmlns="http://www.w3.org/2000/svg" xmlns:xlink="http://www.w3.org/1999/xlink" x="0px" y="0px"
	 width="1000px" height="1000px" viewBox="0 0 1000 1000" enable-background="new 0 0 1000 1000" xml:space="preserve">
<g>
	<defs>
		<rect id="SVGID_1_" x="54.923" y="28.559" width="890.153" height="942.881"/>
	</defs>
	<clipPath id="SVGID_2_">
		<use xlink:href="#SVGID_1_"  overflow="visible"/>
	</clipPath>
</g>
<g>
	<defs>
		<rect id="SVGID_3_" width="1000" height="1000"/>
	</defs>
	<clipPath id="SVGID_4_">
		<use xlink:href="#SVGID_3_"  overflow="visible"/>
	</clipPath>
	<path clip-path="url(#SVGID_4_)" fill="#FFFFFF" d="M112.49,328.315c20.611,18.788,44.369,39.076,70.816,59.438
		c128.815,99.186,259.895,151.614,379.063,151.614c5.822,0,11.625-0.124,17.414-0.369
		C471.35,598.623,340.714,670.029,293.242,695.965L112.49,328.315 M39.094,224.431L284.49,723.569
		c0,0,308.83-168.604,425.686-233.71c-49.704,20.668-99.303,29.475-147.807,29.475C281.826,519.334,39.094,224.431,39.094,224.431"
		/>
	<path clip-path="url(#SVGID_4_)" fill="#FFFFFF" d="M861.854,439.989L635.466,694.825l-85.343-80.601L861.854,439.989z
		 M955.572,364.657L516.531,610.053l120.193,113.517L955.572,364.657z"/>
</g>
</svg>
